<?xml version="1.0" encoding="UTF-8" standalone="no"?>
<!-- Created with Inkscape (http://www.inkscape.org/) -->

<svg
   xmlns:dc="http://purl.org/dc/elements/1.1/"
   xmlns:cc="http://creativecommons.org/ns#"
   xmlns:rdf="http://www.w3.org/1999/02/22-rdf-syntax-ns#"
   xmlns:svg="http://www.w3.org/2000/svg"
   xmlns="http://www.w3.org/2000/svg"
   xmlns:xlink="http://www.w3.org/1999/xlink"
   xmlns:sodipodi="http://sodipodi.sourceforge.net/DTD/sodipodi-0.dtd"
   xmlns:inkscape="http://www.inkscape.org/namespaces/inkscape"
   width="900"
   height="900"
   id="svg2"
   version="1.1"
   inkscape:version="0.92.3 (2405546, 2018-03-11)"
   sodipodi:docname="super-bug.svg"
   inkscape:export-xdpi="72"
   inkscape:export-ydpi="72"
   inkscape:export-filename="D:\book2018-quantumxie\svg\quantum-cat.png">
  <title
     id="title2988">BITCOIN SIGN</title>
  <defs
     id="defs4">
    <linearGradient
       inkscape:collect="always"
       id="linearGradient1139">
      <stop
         style="stop-color:#000000;stop-opacity:1;"
         offset="0"
         id="stop1135" />
      <stop
         style="stop-color:#000000;stop-opacity:0;"
         offset="1"
         id="stop1137" />
    </linearGradient>
    <linearGradient
       inkscape:collect="always"
       id="linearGradient993">
      <stop
         style="stop-color:#1a1a1a;stop-opacity:1;"
         offset="0"
         id="stop989" />
      <stop
         style="stop-color:#1a1a1a;stop-opacity:0;"
         offset="1"
         id="stop991" />
    </linearGradient>
    <linearGradient
       inkscape:collect="always"
       id="linearGradient929-0">
      <stop
         style="stop-color:#000000;stop-opacity:1;"
         offset="0"
         id="stop925" />
      <stop
         style="stop-color:#000000;stop-opacity:0;"
         offset="1"
         id="stop927" />
    </linearGradient>
    <linearGradient
       inkscape:collect="always"
       id="linearGradient919">
      <stop
         id="stop917"
         offset="0"
         style="stop-color:#000000;stop-opacity:0;" />
      <stop
         id="stop915"
         offset="1"
         style="stop-color:#000000;stop-opacity:1;" />
    </linearGradient>
    <linearGradient
       inkscape:collect="always"
       xlink:href="#linearGradient919"
       id="linearGradient921"
       x1="460.4476"
       y1="78.772018"
       x2="636.06086"
       y2="77.285346"
       gradientUnits="userSpaceOnUse" />
    <linearGradient
       inkscape:collect="always"
       xlink:href="#linearGradient929-0"
       id="linearGradient931"
       x1="349.50462"
       y1="74.776586"
       x2="476.2709"
       y2="70.96698"
       gradientUnits="userSpaceOnUse"
       gradientTransform="translate(-24)" />
    <linearGradient
       inkscape:collect="always"
       xlink:href="#linearGradient993"
       id="linearGradient995"
       x1="255.06766"
       y1="138.69152"
       x2="439.22929"
       y2="138.69152"
       gradientUnits="userSpaceOnUse" />
    <linearGradient
       inkscape:collect="always"
       xlink:href="#linearGradient1139"
       id="linearGradient1141"
       x1="452.97028"
       y1="-123.74605"
       x2="533.82706"
       y2="-123.74605"
       gradientUnits="userSpaceOnUse" />
    <linearGradient
       inkscape:collect="always"
       xlink:href="#linearGradient919"
       id="linearGradient1149"
       x1="533.17432"
       y1="-122.64458"
       x2="614.52069"
       y2="-122.64458"
       gradientUnits="userSpaceOnUse" />
  </defs>
  <sodipodi:namedview
     id="base"
     pagecolor="#ffffff"
     bordercolor="#666666"
     borderopacity="1.0"
     inkscape:pageopacity="0.0"
     inkscape:pageshadow="2"
     inkscape:zoom="0.88"
     inkscape:cx="380.76439"
     inkscape:cy="491.42787"
     inkscape:document-units="px"
     inkscape:current-layer="layer1"
     showgrid="false"
     inkscape:window-width="1920"
     inkscape:window-height="1001"
     inkscape:window-x="-9"
     inkscape:window-y="-9"
     inkscape:window-maximized="1"
     inkscape:showpageshadow="false"
     borderlayer="true"
     showguides="false"
     inkscape:guide-bbox="true"
     fit-margin-top="0"
     fit-margin-left="0"
     fit-margin-right="0"
     fit-margin-bottom="0">
    <inkscape:grid
       type="xygrid"
       id="grid2985"
       originx="-145.88716"
       originy="-462.66995" />
    <sodipodi:guide
       orientation="0,1"
       position="-73.839376,-276.75016"
       id="guide2987"
       inkscape:locked="false" />
    <sodipodi:guide
       orientation="1,0"
       position="204.92734,-1.205455"
       id="guide2989"
       inkscape:locked="false" />
  </sodipodi:namedview>
  <metadata
     id="metadata7">
    <rdf:RDF>
      <cc:Work
         rdf:about="">
        <dc:format>image/svg+xml</dc:format>
        <dc:type
           rdf:resource="http://purl.org/dc/dcmitype/StillImage" />
        <dc:title>BITCOIN SIGN</dc:title>
        <dc:date>2011-07-19</dc:date>
        <dc:creator>
          <cc:Agent>
            <dc:title>Pander</dc:title>
          </cc:Agent>
        </dc:creator>
        <dc:publisher>
          <cc:Agent>
            <dc:title>Bitcoin</dc:title>
          </cc:Agent>
        </dc:publisher>
        <dc:subject>
          <rdf:Bag>
            <rdf:li>unicode</rdf:li>
            <rdf:li>bitcoin</rdf:li>
            <rdf:li>sign</rdf:li>
            <rdf:li>symbol</rdf:li>
            <rdf:li>currency</rdf:li>
          </rdf:Bag>
        </dc:subject>
        <dc:description>Character shape for character code request at Unicode Consortium that is proposed for Currency Symbols range 20A0 - 20CF</dc:description>
        <cc:license
           rdf:resource="http://creativecommons.org/publicdomain/zero/1.0/" />
      </cc:Work>
      <cc:License
         rdf:about="http://creativecommons.org/publicdomain/zero/1.0/">
        <cc:permits
           rdf:resource="http://creativecommons.org/ns#Reproduction" />
        <cc:permits
           rdf:resource="http://creativecommons.org/ns#Distribution" />
        <cc:permits
           rdf:resource="http://creativecommons.org/ns#DerivativeWorks" />
      </cc:License>
    </rdf:RDF>
  </metadata>
  <g
     inkscape:label="Layer 1"
     inkscape:groupmode="layer"
     id="layer1"
     transform="translate(-145.88716,310.30776)">
    <g
       style="font-style:normal;font-variant:normal;font-weight:normal;font-stretch:normal;font-size:1041.66662598px;line-height:125%;font-family:FreeSerif;-inkscape-font-specification:FreeSerif;letter-spacing:0px;word-spacing:0px;fill:#000000;fill-opacity:1;stroke:none"
       id="text3024" />
    <text
       xml:space="preserve"
       style="font-style:normal;font-weight:normal;font-size:121.95879364px;line-height:1.25;font-family:sans-serif;letter-spacing:0px;word-spacing:0px;fill:#000000;fill-opacity:1;stroke:none;stroke-width:3.04896998"
       x="-483.13031"
       y="112.17106"
       id="text835"><tspan
         sodipodi:role="line"
         id="tspan833"
         x="-483.13031"
         y="112.17106"
         style="stroke-width:3.04896998">老超人</tspan></text>
    <text
       xml:space="preserve"
       style="font-style:normal;font-weight:bold;font-size:85.33333333px;line-height:1.25;font-family:'Microsoft YaHei UI';letter-spacing:0px;word-spacing:0px;fill:#000000;fill-opacity:1;stroke:none;stroke-width:3.26820803;-inkscape-font-specification:'Microsoft YaHei UI, Bold';font-stretch:normal;font-variant:normal;text-anchor:start;text-align:start;writing-mode:lr;font-variant-ligatures:normal;font-variant-caps:normal;font-variant-numeric:normal;font-feature-settings:normal;"
       x="-467.76871"
       y="341.55951"
       id="text835-4"><tspan
         sodipodi:role="line"
         id="tspan833-2"
         x="-467.76871"
         y="341.55951"
         style="stroke-width:3.26820803;-inkscape-font-specification:'Microsoft YaHei UI, Bold';font-family:'Microsoft YaHei UI';font-weight:bold;font-style:normal;font-stretch:normal;font-variant:normal;font-size:85.33333333px;text-anchor:start;text-align:start;writing-mode:lr;font-variant-ligatures:normal;font-variant-caps:normal;font-variant-numeric:normal;font-feature-settings:normal;">老超人</tspan></text>
    <g
       id="g941"
       transform="matrix(0.38357513,0,0,0.38357513,81.33096,-271.90668)">
      <path
         d="m 326.80546,47.737722 h 58.90942 V 29.340142 H 342.41553 V 6.6683724 h 43.29935 V -14.516718 h 26.38845 V 6.6683724 h 39.211 V 26.552622 q 14.40215,-14.86673 25.83095,-31.5917996 l 24.5301,12.07922 Q 485.78656,27.853462 464.41564,47.737722 h 45.25061 v 23.22926 H 437.0051 q -18.95508,14.49507 -41.25518,27.78221 v 5.017518 q 48.50271,-12.265048 78.60785,-24.065518 l 18.02591,22.114258 q -47.75938,12.91547 -96.63376,24.15844 v 2.04417 q 0,12.82256 15.05257,12.82256 h 40.14017 q 7.6192,0 11.98631,-2.97335 4.3671,-2.97334 5.4821,-8.45545 1.20792,-5.57502 2.60168,-20.53467 l 27.87512,10.40671 q -3.71668,19.32675 -6.96878,28.24679 -3.15918,9.01295 -13.56589,12.72964 -10.3138,3.8096 -25.92386,3.8096 h -47.94521 q -34.93682,0 -35.12265,-33.07848 v -17.37549 q -17.28258,9.01295 -36.23766,17.56132 -2.97335,-11.52171 -7.6192,-25.64511 39.11809,-14.866728 70.33822,-34.565148 h -69.03738 z m 121.72136,-18.39758 h -36.42349 v 18.39758 h 16.07465 q 10.8713,-8.82713 20.34884,-18.39758 z"
         style="font-style:normal;font-variant:normal;font-weight:bold;font-stretch:normal;font-size:190.29415894px;line-height:1.25;font-family:'Microsoft YaHei UI';-inkscape-font-specification:'Microsoft YaHei UI, Bold';font-variant-ligatures:normal;font-variant-caps:normal;font-variant-numeric:normal;font-feature-settings:normal;text-align:start;letter-spacing:0px;word-spacing:0px;writing-mode:lr-tb;text-anchor:start;fill:url(#linearGradient931);fill-opacity:1;stroke:none;stroke-width:7.28813553"
         id="path873"
         inkscape:connector-curvature="0" />
      <path
         d="M 533.66625,70.966982 H 516.012 v 20.62759 h 18.58342 V 114.26634 H 516.012 v 24.80886 q 3.34502,1.95126 44.97186,1.95126 28.52555,0 75.077,-0.92918 -4.83169,14.30923 -7.6192,24.90178 -73.77616,0 -96.44792,-0.74334 -22.57885,-0.65042 -35.30849,-6.31836 -12.72964,-5.57502 -19.6055,-16.3534 -3.2521,17.09674 -8.45545,27.50345 -8.1767,-8.36254 -17.84008,-17.65424 9.47754,-22.8576 9.66338,-72.661148 h 21.74259 q -0.18583,16.07465 -1.11501,29.733458 3.62377,11.80047 11.70756,19.23383 V 70.966982 h -40.51185 v -22.67176 h 31.22014 V 31.384312 H 457.47425 V 8.7125524 h 26.01678 V -14.516718 h 23.9726 V 8.7125524 h 23.4151 V 31.384312 h -23.4151 v 16.91091 h 26.20262 z m 47.3877,-12.63672 q -1.30084,-7.80503 -6.50419,-20.81342 8.54837,0.37167 13.38006,0.37167 8.1767,0 10.59254,-2.97335 2.50876,-2.97334 2.97335,-22.3001 h -20.53468 q -4.18126,36.14475 -34.47223,49.98939 -4.83169,-7.24753 -13.19422,-18.02591 20.163,-8.54837 24.25135,-31.96348 h -20.7205 v -20.81342 h 90.50122 q -1.6725,38.18892 -2.69459,45.7152 -1.02209,7.52628 -5.11044,12.5438 -4.08835,4.92461 -10.8713,6.41128 -6.69003,1.48667 -27.59637,1.85834 z m -38.096,6.87587 h 81.39536 v 65.041948 h -81.39536 z m 57.79442,44.228518 V 86.019552 h -34.19348 v 23.415098 z"
         style="font-style:normal;font-variant:normal;font-weight:bold;font-stretch:normal;font-size:190.29415894px;line-height:1.25;font-family:'Microsoft YaHei UI';-inkscape-font-specification:'Microsoft YaHei UI, Bold';font-variant-ligatures:normal;font-variant-caps:normal;font-variant-numeric:normal;font-feature-settings:normal;text-align:start;letter-spacing:0px;word-spacing:0px;writing-mode:lr-tb;text-anchor:start;fill:url(#linearGradient921);fill-opacity:1;stroke:none;stroke-width:7.28813553"
         id="path875"
         inkscape:connector-curvature="0" />
      <path
         d="m 714.6687,-15.260058 h 27.13178 q 0.0929,20.1630004 -1.76542,39.02517 13.93755,86.784538 80.74493,114.102158 -14.6809,17.28257 -21.37093,26.94595 -49.98938,-25.36636 -70.61697,-86.412878 -19.6055,54.542318 -73.96198,88.271218 -5.76086,-10.22088 -18.76925,-26.57428 41.71976,-23.78677 60.30318,-57.608588 18.67633,-33.82181 18.30466,-97.74875 z"
         style="font-style:normal;font-variant:normal;font-weight:bold;font-stretch:normal;font-size:190.29415894px;line-height:1.25;font-family:'Microsoft YaHei UI';-inkscape-font-specification:'Microsoft YaHei UI, Bold';font-variant-ligatures:normal;font-variant-caps:normal;font-variant-numeric:normal;font-feature-settings:normal;text-align:start;letter-spacing:0px;word-spacing:0px;writing-mode:lr-tb;text-anchor:start;fill:#000000;fill-opacity:1;stroke:none;stroke-width:7.28813553"
         id="path877"
         inkscape:connector-curvature="0" />
    </g>
    <g
       id="g1000"
       transform="matrix(0.43905337,0,0,0.43905337,89.670254,-202.25267)">
      <path
         d="m 256.3685,111.65265 h 58.90942 V 93.255071 h -43.29935 v -22.67177 h 43.29935 v -21.18509 h 26.38845 v 21.18509 h 39.211 v 19.88425 q 14.40215,-14.86673 25.83095,-31.5918 l 24.5301,12.07922 q -15.88882,20.81342 -37.25974,40.697679 h 45.25061 v 23.22926 h -72.66115 q -18.95508,14.49507 -41.25518,27.78221 v 5.01752 q 48.50271,-12.26505 78.60785,-24.06552 l 18.02591,22.11426 q -47.75938,12.91547 -96.63376,24.15844 v 2.04417 q 0,12.82256 15.05257,12.82256 h 40.14017 q 7.6192,0 11.98631,-2.97335 4.3671,-2.97334 5.4821,-8.45545 1.20792,-5.57502 2.60168,-20.53467 l 27.87512,10.40671 q -3.71668,19.32675 -6.96878,28.24679 -3.15918,9.01295 -13.56589,12.72964 -10.3138,3.8096 -25.92386,3.8096 h -47.94521 q -34.93682,0 -35.12265,-33.07848 v -17.37549 q -17.28258,9.01295 -36.23766,17.56132 -2.97335,-11.52171 -7.6192,-25.64511 39.11809,-14.86673 70.33822,-34.56515 H 256.3685 Z M 378.08986,93.255071 h -36.42349 v 18.397579 h 16.07465 q 10.8713,-8.82713 20.34884,-18.397579 z"
         style="font-style:normal;font-variant:normal;font-weight:bold;font-stretch:normal;font-size:190.29415894px;line-height:1.25;font-family:'Microsoft YaHei UI';-inkscape-font-specification:'Microsoft YaHei UI, Bold';font-variant-ligatures:normal;font-variant-caps:normal;font-variant-numeric:normal;font-feature-settings:normal;text-align:start;letter-spacing:0px;word-spacing:0px;writing-mode:lr-tb;text-anchor:start;fill:url(#linearGradient995);fill-opacity:1;stroke:none;stroke-width:7.28813553"
         id="path873-5"
         inkscape:connector-curvature="0" />
      <path
         d="m 463.22929,134.88191 h -17.65425 v 20.62759 h 18.58342 v 22.67177 h -18.58342 v 24.80886 q 3.34502,1.95126 44.97186,1.95126 28.52555,0 75.077,-0.92918 -4.83169,14.30923 -7.6192,24.90178 -73.77616,0 -96.44792,-0.74334 -22.57885,-0.65042 -35.30849,-6.31836 -12.72964,-5.57502 -19.6055,-16.3534 -3.2521,17.09674 -8.45545,27.50345 -8.1767,-8.36254 -17.84008,-17.65424 9.47754,-22.8576 9.66338,-72.66115 h 21.74259 q -0.18583,16.07465 -1.11501,29.73346 3.62377,11.80047 11.70756,19.23383 v -56.77233 h -40.51185 v -22.67176 h 31.22014 V 95.299241 h -26.01678 v -22.67176 h 26.01678 v -23.22927 h 23.9726 v 23.22927 h 23.4151 v 22.67176 h -23.4151 v 16.910909 h 26.20262 z m 47.3877,-12.63672 q -1.30084,-7.80503 -6.50419,-20.81342 8.54837,0.37167 13.38006,0.37167 8.1767,0 10.59254,-2.973349 2.50876,-2.97334 2.97335,-22.3001 h -20.53468 q -4.18126,36.144749 -34.47223,49.989389 -4.83169,-7.24753 -13.19422,-18.02591 20.163,-8.548369 24.25135,-31.963479 h -20.7205 v -20.81342 h 90.50122 q -1.6725,38.18892 -2.69459,45.715199 -1.02209,7.52628 -5.11044,12.5438 -4.08835,4.92461 -10.8713,6.41128 -6.69003,1.48667 -27.59637,1.85834 z m -38.096,6.87587 h 81.39536 v 65.04195 h -81.39536 z m 57.79442,44.22852 v -23.4151 h -34.19348 v 23.4151 z"
         style="font-style:normal;font-variant:normal;font-weight:bold;font-stretch:normal;font-size:190.29415894px;line-height:1.25;font-family:'Microsoft YaHei UI';-inkscape-font-specification:'Microsoft YaHei UI, Bold';font-variant-ligatures:normal;font-variant-caps:normal;font-variant-numeric:normal;font-feature-settings:normal;text-align:start;letter-spacing:0px;word-spacing:0px;writing-mode:lr-tb;text-anchor:start;fill:#000000;fill-opacity:1;stroke:none;stroke-width:7.28813553"
         id="path875-8"
         inkscape:connector-curvature="0" />
      <path
         d="m 644.23174,48.654871 h 27.13178 q 0.0929,20.163 -1.76542,39.02517 13.93755,86.784539 80.74493,114.102159 -14.6809,17.28257 -21.37093,26.94595 -49.98938,-25.36636 -70.61697,-86.41288 -19.6055,54.54232 -73.96198,88.27122 -5.76086,-10.22088 -18.76925,-26.57428 41.71976,-23.78677 60.30318,-57.60859 18.67633,-33.82181 18.30466,-97.748749 z"
         style="font-style:normal;font-variant:normal;font-weight:bold;font-stretch:normal;font-size:190.29415894px;line-height:1.25;font-family:'Microsoft YaHei UI';-inkscape-font-specification:'Microsoft YaHei UI, Bold';font-variant-ligatures:normal;font-variant-caps:normal;font-variant-numeric:normal;font-feature-settings:normal;text-align:start;letter-spacing:0px;word-spacing:0px;writing-mode:lr-tb;text-anchor:start;fill:#000000;fill-opacity:1;stroke:none;stroke-width:7.28813553"
         id="path877-1"
         inkscape:connector-curvature="0" />
    </g>
    <g
       id="g1041"
       transform="matrix(0.3741099,0,0,0.3741099,114.51122,-141.38956)">
      <path
         d="m 292.33512,342.17595 h 20.01506 V 335.9252 H 297.6388 v -7.70296 h 14.71138 v -7.19784 h 8.96573 v 7.19784 h 13.32232 v 6.75587 q 4.89328,-5.05112 8.77632,-10.73363 l 8.33434,4.10404 q -5.39838,7.07156 -12.65936,13.82743 h 15.37434 v 7.89237 h -24.68734 q -6.44017,4.92485 -14.01685,9.43928 v 1.70475 q 16.47927,-4.16717 26.70779,-8.17649 l 6.12448,7.51353 q -16.22672,4.38816 -32.83227,8.20807 v 0.69453 q 0,4.35659 5.11426,4.35659 h 13.63801 q 2.5887,0 4.07247,-1.01023 1.48377,-1.01022 1.8626,-2.87282 0.4104,-1.89417 0.88394,-6.97686 l 9.47085,3.53579 q -1.26278,6.56645 -2.36771,9.59712 -1.07336,3.06224 -4.60915,4.32502 -3.50421,1.29435 -8.80788,1.29435 h -16.28986 q -11.87012,0 -11.93326,-11.23874 v -5.90349 q -5.87193,3.06224 -12.3121,5.96663 -1.01023,-3.91461 -2.5887,-8.71318 13.29075,-5.05112 23.8981,-11.74385 h -23.45613 z m 41.35603,-6.25075 h -12.37524 v 6.25075 h 5.46152 q 3.69363,-2.9991 6.91372,-6.25075 z"
         style="font-style:normal;font-variant:normal;font-weight:bold;font-stretch:normal;font-size:190.29415894px;line-height:1.25;font-family:'Microsoft YaHei UI';-inkscape-font-specification:'Microsoft YaHei UI, Bold';font-variant-ligatures:normal;font-variant-caps:normal;font-variant-numeric:normal;font-feature-settings:normal;text-align:start;letter-spacing:0px;word-spacing:0px;writing-mode:lr-tb;text-anchor:start;fill:#1a1a1a;fill-opacity:1;stroke:none;stroke-width:2.4762156"
         id="path873-5-5"
         inkscape:connector-curvature="0" />
      <path
         d="m 433.68383,286.01827 h -17.65425 v 20.62759 H 434.613 v 22.67177 h -18.58342 v 24.80886 q 3.34502,1.95126 44.97186,1.95126 28.52555,0 75.07701,-0.92918 -4.83169,14.30923 -7.6192,24.90178 -73.77616,0 -96.44792,-0.74334 -22.57885,-0.65042 -35.30849,-6.31836 -12.72964,-5.57502 -19.6055,-16.3534 -3.2521,17.09674 -8.45545,27.50345 -8.1767,-8.36254 -17.84008,-17.65424 9.47754,-22.8576 9.66338,-72.66115 h 21.74259 q -0.18583,16.07465 -1.11501,29.73346 3.62377,11.80047 11.70756,19.23383 v -56.77233 h -40.51185 v -22.67176 h 31.22014 V 246.4356 h -26.01678 v -22.67176 h 26.01678 v -23.22927 h 23.9726 v 23.22927 h 23.4151 v 22.67176 h -23.4151 v 16.91091 h 26.20262 z m 47.3877,-12.63672 q -1.30084,-7.80503 -6.50419,-20.81342 8.54837,0.37167 13.38006,0.37167 8.1767,0 10.59254,-2.97335 2.50876,-2.97334 2.97335,-22.3001 h -20.53468 q -4.18126,36.14475 -34.47223,49.98939 -4.83169,-7.24753 -13.19422,-18.02591 20.163,-8.54837 24.25135,-31.96348 h -20.7205 v -20.81342 h 90.50123 q -1.67251,38.18892 -2.69459,45.7152 -1.02209,7.52628 -5.11044,12.5438 -4.08835,4.92461 -10.87131,6.41128 -6.69003,1.48667 -27.59637,1.85834 z m -38.096,6.87587 h 81.39537 v 65.04195 h -81.39537 z m 57.79442,44.22852 v -23.4151 h -34.19348 v 23.4151 z"
         style="font-style:normal;font-variant:normal;font-weight:bold;font-stretch:normal;font-size:190.29415894px;line-height:1.25;font-family:'Microsoft YaHei UI';-inkscape-font-specification:'Microsoft YaHei UI, Bold';font-variant-ligatures:normal;font-variant-caps:normal;font-variant-numeric:normal;font-feature-settings:normal;text-align:start;letter-spacing:0px;word-spacing:0px;writing-mode:lr-tb;text-anchor:start;fill:#000000;fill-opacity:1;stroke:none;stroke-width:7.28813553"
         id="path875-8-2"
         inkscape:connector-curvature="0" />
      <path
         d="m 614.68628,199.79123 h 27.13179 q 0.0929,20.163 -1.76542,39.02517 13.93755,86.78454 80.74493,114.10216 -14.6809,17.28257 -21.37094,26.94595 -49.98937,-25.36636 -70.61697,-86.41288 -19.6055,54.54232 -73.96198,88.27122 -5.76086,-10.22088 -18.76925,-26.57428 41.71976,-23.78677 60.30318,-57.60859 18.67633,-33.82181 18.30466,-97.74875 z"
         style="font-style:normal;font-variant:normal;font-weight:bold;font-stretch:normal;font-size:190.29415894px;line-height:1.25;font-family:'Microsoft YaHei UI';-inkscape-font-specification:'Microsoft YaHei UI, Bold';font-variant-ligatures:normal;font-variant-caps:normal;font-variant-numeric:normal;font-feature-settings:normal;text-align:start;letter-spacing:0px;word-spacing:0px;writing-mode:lr-tb;text-anchor:start;fill:#000000;fill-opacity:1;stroke:none;stroke-width:7.28813553"
         id="path877-1-4"
         inkscape:connector-curvature="0" />
    </g>
    <g
       id="g1106"
       transform="translate(23.863636,-180.68182)">
      <path
         d="m 420.48705,-71.981198 h 25.86438 v -8.077519 h -19.01072 v -9.954117 h 19.01072 v -9.301385 h 11.58594 v 9.301385 h 17.21572 v 8.730247 q 6.32332,-6.527288 11.34117,-13.870486 l 10.77002,5.303422 q -6.97604,9.138202 -16.35901,17.868453 h 19.86743 v 10.198885 h -31.90212 q -8.32229,6.364109 -18.11323,12.197873 v 2.202959 q 21.29528,-5.385011 34.51304,-10.566048 l 7.91434,9.709341 q -20.96892,5.67058 -42.42738,10.606844 v 0.8975 q 0,5.629788 6.60888,5.629788 h 17.62368 q 3.34524,0 5.26263,-1.305459 1.91739,-1.305455 2.40693,-3.712394 0.53035,-2.447731 1.14228,-9.015816 l 12.23867,4.569101 q -1.63182,8.485475 -3.05967,12.401848 -1.38705,3.957167 -5.95615,5.588992 -4.52831,1.672618 -11.38196,1.672618 h -21.0505 q -15.33913,0 -15.42072,-14.523219 v -7.628767 q -7.58798,3.957166 -15.91027,7.710357 -1.30546,-5.058646 -3.34523,-11.259572 17.17492,-6.527288 30.88223,-15.175946 h -30.3111 z m 53.44218,-8.077519 h -15.99186 v 8.077519 h 7.05763 q 4.77308,-3.875581 8.93423,-8.077519 z"
         style="font-style:normal;font-variant:normal;font-weight:bold;font-stretch:normal;font-size:190.29415894px;line-height:1.25;font-family:'Microsoft YaHei UI';-inkscape-font-specification:'Microsoft YaHei UI, Bold';font-variant-ligatures:normal;font-variant-caps:normal;font-variant-numeric:normal;font-feature-settings:normal;text-align:start;letter-spacing:0px;word-spacing:0px;writing-mode:lr-tb;text-anchor:start;fill:#000000;fill-opacity:1;stroke:none;stroke-width:3.19988036"
         id="path873-5-6"
         inkscape:connector-curvature="0" />
      <path
         d="m 536.50961,-61.782313 h -7.75116 v 9.056613 h 8.15912 v 9.954117 h -8.15912 v 10.892414 q 1.46865,0.856707 19.74505,0.856707 12.52424,0 32.96281,-0.40796 -2.12137,6.282516 -3.34524,10.933211 -32.39167,0 -42.34578,-0.326366 -9.91332,-0.285569 -15.50231,-2.774097 -5.58899,-2.447732 -8.60786,-7.180016 -1.42785,7.506381 -3.7124,12.075483 -3.59,-3.671602 -7.83274,-7.751154 4.16114,-10.035706 4.24274,-31.902123 h 9.54615 q -0.0816,7.05763 -0.48955,13.054576 1.59103,5.181036 5.14025,8.444678 V -61.782313 H 500.7727 v -9.954112 h 13.70731 v -7.424792 h -11.42275 v -9.954113 h 11.42275 v -10.198889 h 10.52525 v 10.198889 h 10.28048 v 9.954113 h -10.28048 v 7.424792 h 11.50435 z m 20.80573,-5.548194 q -0.57114,-3.426825 -2.85569,-9.138203 3.75319,0.163183 5.87456,0.163183 3.59001,0 4.65069,-1.305458 1.10148,-1.305455 1.30546,-9.790935 h -9.01582 q -1.83579,15.869474 -15.13515,21.94801 -2.12137,-3.182052 -5.79296,-7.914336 8.85263,-3.753191 10.64763,-14.033674 h -9.0974 v -9.138202 h 39.73487 q -0.73432,16.766974 -1.18307,20.071412 -0.44876,3.304439 -2.24376,5.507398 -1.795,2.162167 -4.77308,2.814894 -2.93728,0.652728 -12.11628,0.815911 z m -16.72618,3.018874 h 35.73691 v 28.556887 h -35.73691 z m 25.37484,19.41868 v -10.280478 h -15.01276 v 10.280478 z"
         style="font-style:normal;font-variant:normal;font-weight:bold;font-stretch:normal;font-size:190.29415894px;line-height:1.25;font-family:'Microsoft YaHei UI';-inkscape-font-specification:'Microsoft YaHei UI, Bold';font-variant-ligatures:normal;font-variant-caps:normal;font-variant-numeric:normal;font-feature-settings:normal;text-align:start;letter-spacing:0px;word-spacing:0px;writing-mode:lr-tb;text-anchor:start;fill:#000000;fill-opacity:1;stroke:none;stroke-width:3.19988036"
         id="path875-8-4"
         inkscape:connector-curvature="0" />
      <path
         d="m 615.97935,-99.640585 h 11.9123 q 0.0408,8.852633 -0.77512,17.134132 6.11933,38.103045 35.45134,50.096938 -6.4457,7.587971 -9.38298,11.83071 -21.94801,-11.137186 -31.00462,-37.939866 -8.60786,23.946989 -32.47326,38.755777 -2.52932,-4.487512 -8.2407,-11.667528 18.3172,-10.443661 26.47631,-25.293245 8.19991,-14.84958 8.03673,-42.916918 z"
         style="font-style:normal;font-variant:normal;font-weight:bold;font-stretch:normal;font-size:190.29415894px;line-height:1.25;font-family:'Microsoft YaHei UI';-inkscape-font-specification:'Microsoft YaHei UI, Bold';font-variant-ligatures:normal;font-variant-caps:normal;font-variant-numeric:normal;font-feature-settings:normal;text-align:start;letter-spacing:0px;word-spacing:0px;writing-mode:lr-tb;text-anchor:start;fill:#000000;fill-opacity:1;stroke:none;stroke-width:3.19988036"
         id="path877-1-8"
         inkscape:connector-curvature="0" />
    </g>
    <g
       id="g1154">
      <path
         d="m 453.54141,-135.61756 h 25.86438 v -8.07752 h -19.01072 v -9.95412 h 19.01072 v -9.30138 h 11.58594 v 9.30138 h 17.21572 v 8.73025 q 6.32332,-6.52729 11.34117,-13.87049 l 10.77002,5.30343 q -6.97604,9.1382 -16.35901,17.86845 h 19.86743 v 10.19888 h -31.90212 q -8.32229,6.36411 -18.11323,12.19788 v 2.20296 q 21.29528,-5.38502 34.51304,-10.56605 l 7.91434,9.70934 q -20.96892,5.67058 -42.42738,10.60684 v 0.8975 q 0,5.62979 6.60888,5.62979 h 17.62368 q 3.34524,0 5.26263,-1.305459 1.91739,-1.305455 2.40693,-3.712394 0.53035,-2.447727 1.14228,-9.015817 l 12.23867,4.5691 q -1.63182,8.485477 -3.05967,12.40185 -1.38705,3.957167 -5.95615,5.588992 -4.52831,1.672618 -11.38196,1.672618 h -21.0505 q -15.33913,0 -15.42072,-14.523219 v -7.628771 q -7.58798,3.95717 -15.91027,7.710361 -1.30546,-5.058641 -3.34523,-11.259571 17.17492,-6.52729 30.88223,-15.17595 h -30.3111 z m 53.44218,-8.07752 h -15.99186 v 8.07752 h 7.05763 q 4.77308,-3.87558 8.93423,-8.07752 z"
         style="font-style:normal;font-variant:normal;font-weight:bold;font-stretch:normal;font-size:190.29415894px;line-height:1.25;font-family:'Microsoft YaHei UI';-inkscape-font-specification:'Microsoft YaHei UI, Bold';font-variant-ligatures:normal;font-variant-caps:normal;font-variant-numeric:normal;font-feature-settings:normal;text-align:start;letter-spacing:0px;word-spacing:0px;writing-mode:lr-tb;text-anchor:start;fill:url(#linearGradient1141);fill-opacity:1;stroke:none;stroke-width:3.19988036"
         id="path873-5-6-6"
         inkscape:connector-curvature="0" />
      <path
         d="m 569.56397,-125.41868 h -7.75116 v 9.05662 h 8.15912 v 9.95411 h -8.15912 v 10.892417 q 1.46865,0.856707 19.74505,0.856707 12.52424,0 32.96281,-0.40796 -2.12137,6.282516 -3.34524,10.933211 -32.39167,0 -42.34578,-0.326366 -9.91332,-0.285569 -15.50231,-2.774097 -5.58899,-2.447732 -8.60786,-7.180016 -1.42785,7.506381 -3.7124,12.075483 -3.59,-3.671602 -7.83274,-7.751154 4.16114,-10.035705 4.24274,-31.902125 h 9.54615 q -0.0816,7.05763 -0.48955,13.05458 1.59103,5.18103 5.14025,8.44468 v -24.92609 h -17.78687 v -9.95411 h 13.70731 v -7.42479 h -11.42275 v -9.95411 h 11.42275 v -10.19889 h 10.52525 v 10.19889 h 10.28048 v 9.95411 h -10.28048 v 7.42479 h 11.50435 z m 20.80573,-5.54819 q -0.57114,-3.42683 -2.85569,-9.1382 3.75319,0.16318 5.87456,0.16318 3.59001,0 4.65069,-1.30546 1.10148,-1.30545 1.30546,-9.79093 h -9.01582 q -1.83579,15.86947 -15.13515,21.94801 -2.12137,-3.18206 -5.79296,-7.91434 8.85263,-3.75319 10.64763,-14.03367 h -9.0974 v -9.13821 h 39.73487 q -0.73432,16.76698 -1.18307,20.07142 -0.44876,3.30443 -2.24376,5.50739 -1.795,2.16217 -4.77308,2.8149 -2.93728,0.65273 -12.11628,0.81591 z m -16.72618,3.01887 h 35.73691 v 28.55689 h -35.73691 z m 25.37484,19.41868 V -118.8098 H 584.0056 v 10.28048 z"
         style="font-style:normal;font-variant:normal;font-weight:bold;font-stretch:normal;font-size:190.29415894px;line-height:1.25;font-family:'Microsoft YaHei UI';-inkscape-font-specification:'Microsoft YaHei UI, Bold';font-variant-ligatures:normal;font-variant-caps:normal;font-variant-numeric:normal;font-feature-settings:normal;text-align:start;letter-spacing:0px;word-spacing:0px;writing-mode:lr-tb;text-anchor:start;fill:url(#linearGradient1149);fill-opacity:1.0;stroke:none;stroke-width:3.19988036"
         id="path875-8-4-4"
         inkscape:connector-curvature="0" />
      <path
         d="m 649.03371,-163.27695 h 11.9123 q 0.0408,8.85263 -0.77512,17.13413 6.11933,38.10305 35.45134,50.096941 -6.4457,7.587971 -9.38298,11.83071 -21.94801,-11.137186 -31.00462,-37.939861 -8.60786,23.946984 -32.47326,38.755772 -2.52932,-4.487512 -8.2407,-11.667528 18.3172,-10.443664 26.47631,-25.293244 8.19991,-14.84958 8.03673,-42.91692 z"
         style="font-style:normal;font-variant:normal;font-weight:bold;font-stretch:normal;font-size:190.29415894px;line-height:1.25;font-family:'Microsoft YaHei UI';-inkscape-font-specification:'Microsoft YaHei UI, Bold';font-variant-ligatures:normal;font-variant-caps:normal;font-variant-numeric:normal;font-feature-settings:normal;text-align:start;letter-spacing:0px;word-spacing:0px;writing-mode:lr-tb;text-anchor:start;fill:#000000;fill-opacity:1;stroke:none;stroke-width:3.19988036"
         id="path877-1-8-7"
         inkscape:connector-curvature="0" />
    </g>
  </g>
</svg>
