<?xml version="1.0" encoding="UTF-8" standalone="no"?><svg xmlns="http://www.w3.org/2000/svg" xmlns:xlink="http://www.w3.org/1999/xlink" contentScriptType="application/ecmascript" contentStyleType="text/css" height="860px" preserveAspectRatio="none" style="width:708px;height:860px;" version="1.1" viewBox="0 0 708 860" width="708px" zoomAndPan="magnify"><defs><filter height="300%" id="fyqxjxab8dwud" width="300%" x="-1" y="-1"><feGaussianBlur result="blurOut" stdDeviation="2.0"/><feColorMatrix in="blurOut" result="blurOut2" type="matrix" values="0 0 0 0 0 0 0 0 0 0 0 0 0 0 0 0 0 0 .4 0"/><feOffset dx="4.0" dy="4.0" in="blurOut2" result="blurOut3"/><feBlend in="SourceGraphic" in2="blurOut3" mode="normal"/></filter></defs><g><text fill="#000000" font-family="sans-serif" font-size="14" font-weight="bold" lengthAdjust="spacingAndGlyphs" textLength="153" x="276" y="26.8643">Seq-LongCare-181009</text><line style="stroke: #A80036; stroke-width: 1.0; stroke-dasharray: 5.0,5.0;" x1="46" x2="46" y1="123.8809" y2="769.1709"/><line style="stroke: #A80036; stroke-width: 1.0; stroke-dasharray: 5.0,5.0;" x1="132" x2="132" y1="123.8809" y2="769.1709"/><line style="stroke: #A80036; stroke-width: 1.0; stroke-dasharray: 5.0,5.0;" x1="367" x2="367" y1="123.8809" y2="769.1709"/><line style="stroke: #A80036; stroke-width: 1.0; stroke-dasharray: 5.0,5.0;" x1="467.5" x2="467.5" y1="123.8809" y2="769.1709"/><line style="stroke: #A80036; stroke-width: 1.0; stroke-dasharray: 5.0,5.0;" x1="560.5" x2="560.5" y1="123.8809" y2="769.1709"/><line style="stroke: #A80036; stroke-width: 1.0; stroke-dasharray: 5.0,5.0;" x1="660" x2="660" y1="123.8809" y2="769.1709"/><text fill="#000000" font-family="sans-serif" font-size="14" lengthAdjust="spacingAndGlyphs" textLength="70" x="8" y="120.8047">請領資格者</text><ellipse cx="46" cy="46.9404" fill="#0000FF" filter="url(#fyqxjxab8dwud)" rx="8" ry="8" style="stroke: #A80036; stroke-width: 2.0;"/><path d="M46,54.9404 L46,81.9404 M33,62.9404 L59,62.9404 M46,81.9404 L33,96.9404 M46,81.9404 L59,96.9404 " fill="none" filter="url(#fyqxjxab8dwud)" style="stroke: #A80036; stroke-width: 2.0;"/><text fill="#000000" font-family="sans-serif" font-size="14" lengthAdjust="spacingAndGlyphs" textLength="70" x="8" y="785.0352">請領資格者</text><ellipse cx="46" cy="798.1113" fill="#0000FF" filter="url(#fyqxjxab8dwud)" rx="8" ry="8" style="stroke: #A80036; stroke-width: 2.0;"/><path d="M46,806.1113 L46,833.1113 M33,814.1113 L59,814.1113 M46,833.1113 L33,848.1113 M46,833.1113 L59,848.1113 " fill="none" filter="url(#fyqxjxab8dwud)" style="stroke: #A80036; stroke-width: 2.0;"/><text fill="#000000" font-family="sans-serif" font-size="14" lengthAdjust="spacingAndGlyphs" textLength="70" x="94" y="120.8047">家庭照顧者</text><ellipse cx="132" cy="46.9404" fill="#FF0000" filter="url(#fyqxjxab8dwud)" rx="8" ry="8" style="stroke: #A80036; stroke-width: 2.0;"/><path d="M132,54.9404 L132,81.9404 M119,62.9404 L145,62.9404 M132,81.9404 L119,96.9404 M132,81.9404 L145,96.9404 " fill="none" filter="url(#fyqxjxab8dwud)" style="stroke: #A80036; stroke-width: 2.0;"/><text fill="#000000" font-family="sans-serif" font-size="14" lengthAdjust="spacingAndGlyphs" textLength="70" x="94" y="785.0352">家庭照顧者</text><ellipse cx="132" cy="798.1113" fill="#FF0000" filter="url(#fyqxjxab8dwud)" rx="8" ry="8" style="stroke: #A80036; stroke-width: 2.0;"/><path d="M132,806.1113 L132,833.1113 M119,814.1113 L145,814.1113 M132,833.1113 L119,848.1113 M132,833.1113 L145,848.1113 " fill="none" filter="url(#fyqxjxab8dwud)" style="stroke: #A80036; stroke-width: 2.0;"/><rect fill="#FEFECE" filter="url(#fyqxjxab8dwud)" height="33.9404" style="stroke: #A80036; stroke-width: 1.5;" width="70" x="330" y="84.9404"/><text fill="#000000" font-family="sans-serif" font-size="14" lengthAdjust="spacingAndGlyphs" textLength="56" x="337" y="108.8047">照管中心</text><rect fill="#FEFECE" filter="url(#fyqxjxab8dwud)" height="33.9404" style="stroke: #A80036; stroke-width: 1.5;" width="70" x="330" y="768.1709"/><text fill="#000000" font-family="sans-serif" font-size="14" lengthAdjust="spacingAndGlyphs" textLength="56" x="337" y="792.0352">照管中心</text><rect fill="#FFFF00" filter="url(#fyqxjxab8dwud)" height="33.9404" style="stroke: #A80036; stroke-width: 1.5;" width="79" x="426.5" y="84.9404"/><text fill="#000000" font-family="sans-serif" font-size="14" lengthAdjust="spacingAndGlyphs" textLength="65" x="433.5" y="108.8047">長照機構A</text><rect fill="#FFFF00" filter="url(#fyqxjxab8dwud)" height="33.9404" style="stroke: #A80036; stroke-width: 1.5;" width="79" x="426.5" y="768.1709"/><text fill="#000000" font-family="sans-serif" font-size="14" lengthAdjust="spacingAndGlyphs" textLength="65" x="433.5" y="792.0352">長照機構A</text><rect fill="#008000" filter="url(#fyqxjxab8dwud)" height="33.9404" style="stroke: #A80036; stroke-width: 1.5;" width="79" x="519.5" y="84.9404"/><text fill="#000000" font-family="sans-serif" font-size="14" lengthAdjust="spacingAndGlyphs" textLength="65" x="526.5" y="108.8047">長照機構B</text><rect fill="#008000" filter="url(#fyqxjxab8dwud)" height="33.9404" style="stroke: #A80036; stroke-width: 1.5;" width="79" x="519.5" y="768.1709"/><text fill="#000000" font-family="sans-serif" font-size="14" lengthAdjust="spacingAndGlyphs" textLength="65" x="526.5" y="792.0352">長照機構B</text><rect fill="#FEFECE" filter="url(#fyqxjxab8dwud)" height="33.9404" style="stroke: #A80036; stroke-width: 1.5;" width="70" x="623" y="84.9404"/><text fill="#000000" font-family="sans-serif" font-size="14" lengthAdjust="spacingAndGlyphs" textLength="56" x="630" y="108.8047">縣市政府</text><rect fill="#FEFECE" filter="url(#fyqxjxab8dwud)" height="33.9404" style="stroke: #A80036; stroke-width: 1.5;" width="70" x="623" y="768.1709"/><text fill="#000000" font-family="sans-serif" font-size="14" lengthAdjust="spacingAndGlyphs" textLength="56" x="630" y="792.0352">縣市政府</text><path d="M11,138.8809 L11,166.8809 L695,166.8809 L695,148.8809 L685,138.8809 L11,138.8809 " fill="#FBFB77" filter="url(#fyqxjxab8dwud)" style="stroke: #A80036; stroke-width: 1.0;"/><path d="M685,138.8809 L685,148.8809 L695,148.8809 L685,138.8809 " fill="#FBFB77" style="stroke: #A80036; stroke-width: 1.0;"/><text fill="#000000" font-family="sans-serif" font-size="13" lengthAdjust="spacingAndGlyphs" textLength="239" x="227" y="159.5405">長期照顧給付及支付基準(1071101公告版)</text><path d="M11,181.397 L11,209.397 L402,209.397 L402,191.397 L392,181.397 L11,181.397 " fill="#FBFB77" filter="url(#fyqxjxab8dwud)" style="stroke: #A80036; stroke-width: 1.0;"/><path d="M392,181.397 L392,191.397 L402,191.397 L392,181.397 " fill="#FBFB77" style="stroke: #A80036; stroke-width: 1.0;"/><text fill="#000000" font-family="sans-serif" font-size="13" lengthAdjust="spacingAndGlyphs" textLength="69" x="165.5" y="202.0566">第一節 給付</text><polygon fill="#A80036" points="355,239.4292,365,243.4292,355,247.4292,359,243.4292" style="stroke: #A80036; stroke-width: 1.0;"/><line style="stroke: #A80036; stroke-width: 1.0;" x1="46" x2="361" y1="243.4292" y2="243.4292"/><text fill="#000000" font-family="sans-serif" font-size="13" font-weight="bold" lengthAdjust="spacingAndGlyphs" textLength="21" x="53" y="238.5728">100</text><text fill="#000000" font-family="sans-serif" font-size="13" lengthAdjust="spacingAndGlyphs" textLength="78" x="78" y="238.5728">長照需要等級</text><polygon fill="#A80036" points="57,271.9453,47,275.9453,57,279.9453,53,275.9453" style="stroke: #A80036; stroke-width: 1.0;"/><line style="stroke: #A80036; stroke-width: 1.0;" x1="51" x2="366" y1="275.9453" y2="275.9453"/><text fill="#000000" font-family="sans-serif" font-size="13" font-weight="bold" lengthAdjust="spacingAndGlyphs" textLength="21" x="63" y="271.0889">101</text><text fill="#000000" font-family="sans-serif" font-size="13" lengthAdjust="spacingAndGlyphs" textLength="52" x="88" y="271.0889">照顧計畫</text><polygon fill="#A80036" points="57,304.4614,47,308.4614,57,312.4614,53,308.4614" style="stroke: #A80036; stroke-width: 1.0;"/><line style="stroke: #A80036; stroke-width: 1.0;" x1="51" x2="366" y1="308.4614" y2="308.4614"/><text fill="#000000" font-family="sans-serif" font-size="13" font-weight="bold" lengthAdjust="spacingAndGlyphs" textLength="21" x="63" y="303.605">102</text><text fill="#000000" font-family="sans-serif" font-size="13" lengthAdjust="spacingAndGlyphs" textLength="155" x="88" y="303.605">個人額度 - 照顧及專業服務</text><polygon fill="#A80036" points="57,336.9775,47,340.9775,57,344.9775,53,340.9775" style="stroke: #A80036; stroke-width: 1.0;"/><line style="stroke: #A80036; stroke-width: 1.0;" x1="51" x2="366" y1="340.9775" y2="340.9775"/><text fill="#000000" font-family="sans-serif" font-size="13" font-weight="bold" lengthAdjust="spacingAndGlyphs" textLength="21" x="63" y="336.1211">103</text><text fill="#000000" font-family="sans-serif" font-size="13" lengthAdjust="spacingAndGlyphs" textLength="142" x="88" y="336.1211">個人額度 - 交通接送服務</text><polygon fill="#A80036" points="57,369.4937,47,373.4937,57,377.4937,53,373.4937" style="stroke: #A80036; stroke-width: 1.0;"/><line style="stroke: #A80036; stroke-width: 1.0;" x1="51" x2="366" y1="373.4937" y2="373.4937"/><text fill="#000000" font-family="sans-serif" font-size="13" font-weight="bold" lengthAdjust="spacingAndGlyphs" textLength="21" x="63" y="368.6372">104</text><text fill="#000000" font-family="sans-serif" font-size="13" lengthAdjust="spacingAndGlyphs" textLength="272" x="88" y="368.6372">個人額度 - 輔具服務及居家無障礙環境改善服務</text><polygon fill="#A80036" points="143,402.0098,133,406.0098,143,410.0098,139,406.0098" style="stroke: #A80036; stroke-width: 1.0;"/><line style="stroke: #A80036; stroke-width: 1.0;" x1="137" x2="366" y1="406.0098" y2="406.0098"/><text fill="#000000" font-family="sans-serif" font-size="13" font-weight="bold" lengthAdjust="spacingAndGlyphs" textLength="21" x="149" y="401.1533">105</text><text fill="#000000" font-family="sans-serif" font-size="13" lengthAdjust="spacingAndGlyphs" textLength="78" x="174" y="401.1533">喘息服務額度</text><path d="M8,419.0098 L8,447.0098 L597,447.0098 L597,429.0098 L587,419.0098 L8,419.0098 " fill="#FBFB77" filter="url(#fyqxjxab8dwud)" style="stroke: #A80036; stroke-width: 1.0;"/><path d="M587,419.0098 L587,429.0098 L597,429.0098 L587,419.0098 " fill="#FBFB77" style="stroke: #A80036; stroke-width: 1.0;"/><text fill="#000000" font-family="sans-serif" font-size="13" lengthAdjust="spacingAndGlyphs" textLength="69" x="261.75" y="439.6694">第二節 支付</text><polygon fill="#A80036" points="456,477.042,466,481.042,456,485.042,460,481.042" style="stroke: #A80036; stroke-width: 1.0;"/><line style="stroke: #A80036; stroke-width: 1.0;" x1="46" x2="462" y1="481.042" y2="481.042"/><text fill="#000000" font-family="sans-serif" font-size="13" font-weight="bold" lengthAdjust="spacingAndGlyphs" textLength="21" x="53" y="476.1855">200</text><text fill="#000000" font-family="sans-serif" font-size="13" lengthAdjust="spacingAndGlyphs" textLength="52" x="78" y="476.1855">服務請求</text><polygon fill="#A80036" points="378,509.5581,368,513.5581,378,517.5581,374,513.5581" style="stroke: #A80036; stroke-width: 1.0;"/><line style="stroke: #A80036; stroke-width: 1.0;" x1="372" x2="467" y1="513.5581" y2="513.5581"/><text fill="#000000" font-family="sans-serif" font-size="13" font-weight="bold" lengthAdjust="spacingAndGlyphs" textLength="21" x="384" y="508.7017">201</text><text fill="#000000" font-family="sans-serif" font-size="13" lengthAdjust="spacingAndGlyphs" textLength="52" x="409" y="508.7017">確認額度</text><polygon fill="#A80036" points="57,542.0742,47,546.0742,57,550.0742,53,546.0742" style="stroke: #A80036; stroke-width: 1.0;"/><line style="stroke: #A80036; stroke-width: 1.0;" x1="51" x2="467" y1="546.0742" y2="546.0742"/><text fill="#000000" font-family="sans-serif" font-size="13" font-weight="bold" lengthAdjust="spacingAndGlyphs" textLength="21" x="63" y="541.2178">202</text><text fill="#000000" font-family="sans-serif" font-size="13" lengthAdjust="spacingAndGlyphs" textLength="195" x="88" y="541.2178">事前準備實際服務事後善後及紀錄</text><polygon fill="#A80036" points="549,574.5903,559,578.5903,549,582.5903,553,578.5903" style="stroke: #A80036; stroke-width: 1.0;"/><line style="stroke: #A80036; stroke-width: 1.0;" x1="132" x2="555" y1="578.5903" y2="578.5903"/><text fill="#000000" font-family="sans-serif" font-size="13" font-weight="bold" lengthAdjust="spacingAndGlyphs" textLength="21" x="139" y="573.7339">203</text><text fill="#000000" font-family="sans-serif" font-size="13" lengthAdjust="spacingAndGlyphs" textLength="52" x="164" y="573.7339">服務請求</text><polygon fill="#A80036" points="143,607.1064,133,611.1064,143,615.1064,139,611.1064" style="stroke: #A80036; stroke-width: 1.0;"/><line style="stroke: #A80036; stroke-width: 1.0;" x1="137" x2="560" y1="611.1064" y2="611.1064"/><text fill="#000000" font-family="sans-serif" font-size="13" font-weight="bold" lengthAdjust="spacingAndGlyphs" textLength="21" x="149" y="606.25">204</text><text fill="#000000" font-family="sans-serif" font-size="13" lengthAdjust="spacingAndGlyphs" textLength="195" x="174" y="606.25">事前準備實際服務事後善後及紀錄</text><path d="M431,624.1064 L431,652.1064 L696,652.1064 L696,634.1064 L686,624.1064 L431,624.1064 " fill="#FBFB77" filter="url(#fyqxjxab8dwud)" style="stroke: #A80036; stroke-width: 1.0;"/><path d="M686,624.1064 L686,634.1064 L696,634.1064 L686,624.1064 " fill="#FBFB77" style="stroke: #A80036; stroke-width: 1.0;"/><text fill="#000000" font-family="sans-serif" font-size="13" lengthAdjust="spacingAndGlyphs" textLength="129" x="492.75" y="644.7661">金流$ 每月10日前申報</text><polygon fill="#A80036" points="648,682.1387,658,686.1387,648,690.1387,652,686.1387" style="stroke: #A80036; stroke-width: 1.0;"/><line style="stroke: #A80036; stroke-width: 1.0;" x1="468" x2="654" y1="686.1387" y2="686.1387"/><text fill="#000000" font-family="sans-serif" font-size="13" font-weight="bold" lengthAdjust="spacingAndGlyphs" textLength="21" x="475" y="681.2822">205</text><text fill="#000000" font-family="sans-serif" font-size="13" lengthAdjust="spacingAndGlyphs" textLength="143" x="500" y="681.2822">領款收據、服務費用總表</text><polygon fill="#A80036" points="479,714.6548,469,718.6548,479,722.6548,475,718.6548" style="stroke: #A80036; stroke-width: 1.0;"/><line style="stroke: #A80036; stroke-width: 1.0;" x1="473" x2="659" y1="718.6548" y2="718.6548"/><text fill="#000000" font-family="sans-serif" font-size="13" font-weight="bold" lengthAdjust="spacingAndGlyphs" textLength="21" x="485" y="713.7983">206</text><text fill="#000000" font-family="sans-serif" font-size="13" lengthAdjust="spacingAndGlyphs" textLength="66" x="510" y="713.7983">15日內暫付</text><polygon fill="#A80036" points="479,747.1709,469,751.1709,479,755.1709,475,751.1709" style="stroke: #A80036; stroke-width: 1.0;"/><line style="stroke: #A80036; stroke-width: 1.0;" x1="473" x2="659" y1="751.1709" y2="751.1709"/><text fill="#000000" font-family="sans-serif" font-size="13" font-weight="bold" lengthAdjust="spacingAndGlyphs" textLength="21" x="485" y="746.3145">207</text><text fill="#000000" font-family="sans-serif" font-size="13" lengthAdjust="spacingAndGlyphs" textLength="66" x="510" y="746.3145">75日內全額</text><!--
@startuml
title Seq-LongCare-181009
actor 請領資格者 as Alice #blue
actor 家庭照顧者 as Bob #red
participant 照管中心 as CM
participant 長照機構A as COA #yellow
participant 長照機構B as COB #green
participant 縣市政府 as GOV
autonumber 100
note over Alice, GOV : 長期照顧給付及支付基準(1071101公告版)
note over Alice, CM : 第一節 給付
Alice -> CM : 長照需要等級
CM -> Alice : 照顧計畫
CM -> Alice : 個人額度 - 照顧及專業服務
CM -> Alice : 個人額度 - 交通接送服務
CM -> Alice : 個人額度 - 輔具服務及居家無障礙環境改善服務
CM -> Bob : 喘息服務額度
note over Alice, COB : 第二節 支付
autonumber 200
Alice -> COA : 服務請求
COA -> CM : 確認額度
COA -> Alice : 事前準備實際服務事後善後及紀錄
Bob -> COB : 服務請求
COB -> Bob : 事前準備實際服務事後善後及紀錄
note over COA, GOV : 金流$ 每月10日前申報
COA -> GOV : 領款收據、服務費用總表
GOV -> COA : 15日內暫付
GOV -> COA : 75日內全額
@enduml

PlantUML version 1.2018.03(Fri Apr 06 00:59:15 CST 2018)
(GPL source distribution)
Java Runtime: Java(TM) SE Runtime Environment
JVM: Java HotSpot(TM) 64-Bit Server VM
Java Version: 10.0.2+13
Operating System: Windows 10
OS Version: 10.0
Default Encoding: MS950
Language: zh
Country: TW
--></g></svg>