<?xml version="1.0" encoding="UTF-8" standalone="no"?>
<!-- Created with Inkscape (http://www.inkscape.org/) -->

<svg
   xmlns:dc="http://purl.org/dc/elements/1.1/"
   xmlns:cc="http://creativecommons.org/ns#"
   xmlns:rdf="http://www.w3.org/1999/02/22-rdf-syntax-ns#"
   xmlns:svg="http://www.w3.org/2000/svg"
   xmlns="http://www.w3.org/2000/svg"
   xmlns:sodipodi="http://sodipodi.sourceforge.net/DTD/sodipodi-0.dtd"
   xmlns:inkscape="http://www.inkscape.org/namespaces/inkscape"
   id="svg2"
   sodipodi:docname="logo.svg"
   viewBox="0 0 3015.7679 1085.6974"
   sodipodi:version="0.32"
   version="1.0"
   inkscape:output_extension="org.inkscape.output.svg.inkscape"
   inkscape:version="0.91 r13725"
   width="3015.7681"
   height="1085.6974">
  <defs
     id="defs15" />
  <sodipodi:namedview
     id="base"
     bordercolor="#666666"
     inkscape:pageshadow="2"
     guidetolerance="10"
     pagecolor="#ffffff"
     gridtolerance="10000"
     inkscape:window-height="835"
     inkscape:zoom="0.31566037"
     objecttolerance="10"
     showgrid="false"
     borderopacity="1.0"
     inkscape:current-layer="layer1"
     inkscape:cx="1484.191"
     inkscape:cy="516.02971"
     inkscape:window-y="109"
     inkscape:window-x="816"
     inkscape:window-width="1623"
     showborder="false"
     inkscape:pageopacity="0.0"
     inkscape:document-units="px"
     inkscape:window-maximized="0"
     fit-margin-top="0"
     fit-margin-left="0"
     fit-margin-right="0"
     fit-margin-bottom="0" />
  <g
     id="layer1"
     inkscape:label="Layer 1"
     inkscape:groupmode="layer"
     transform="translate(2230.0214,2067.286)">
    <path
       style="color:#000000;font-style:normal;font-variant:normal;font-weight:normal;font-stretch:normal;font-size:medium;line-height:normal;font-family:sans-serif;text-indent:0;text-align:start;text-decoration:none;text-decoration-line:none;text-decoration-style:solid;text-decoration-color:#000000;letter-spacing:normal;word-spacing:normal;text-transform:none;direction:ltr;block-progression:tb;writing-mode:lr-tb;baseline-shift:baseline;text-anchor:start;white-space:normal;clip-rule:nonzero;display:inline;overflow:visible;visibility:visible;opacity:1;isolation:auto;mix-blend-mode:normal;color-interpolation:sRGB;color-interpolation-filters:linearRGB;solid-color:#000000;solid-opacity:1;fill:#000000;fill-opacity:1;fill-rule:nonzero;stroke:none;stroke-width:87.9001236;stroke-linecap:round;stroke-linejoin:round;stroke-miterlimit:4;stroke-dasharray:none;stroke-dashoffset:0;stroke-opacity:1;color-rendering:auto;image-rendering:auto;shape-rendering:auto;text-rendering:auto;enable-background:accumulate"
       d="m -1980.8964,-1926.3063 c -30.8601,20.4092 -59.8275,43.9876 -86.377,70.5371 -104.1935,104.1935 -162.7479,245.5564 -162.748,392.9082 0,147.3519 58.5545,288.7127 162.748,392.9062 27.4072,27.4072 57.39,51.6512 89.3731,72.50784 l 48.3554,-73.39254 c -27.0485,-17.6074 -52.4004,-38.0958 -75.5742,-61.2696 -87.7329,-87.7329 -137.0019,-206.6788 -137.0019,-330.7519 0,-124.073 49.269,-243.0191 137.0019,-330.752 22.3154,-22.3155 46.6531,-42.1362 72.5781,-59.2968 l -48.3554,-73.3965 z m 97.3125,147.7011 c -102.1891,67.9396 -169.6836,184.114 -169.6836,315.7422 10e-5,132.9104 68.8156,250.0656 172.6797,317.7149 l 32.8086,-49.7969 c -87.6738,-56.762 -145.5507,-155.415 -145.5508,-267.918 0,-111.2141 56.5621,-208.8881 142.5527,-265.9453 l -32.8066,-49.7969 z m 79.6894,120.9532 c -62.9393,41.9888 -104.4922,113.6296 -104.4922,194.791 0,82.4435 42.8716,155.0693 107.4864,196.7637 l 20.2578,-30.7481 c -54.6175,-34.9683 -90.7266,-96.1745 -90.7266,-166.0156 0,-68.5531 34.796,-128.779 87.7305,-164.0469 l -20.2559,-30.7441 z m 58.1778,88.3027 c -34.2754,23.043 -56.877,62.176 -56.877,106.4863 0,45.5926 23.9294,85.7033 59.8828,108.4453 l 11.1074,-16.8574 c -30.4788,-19.0523 -50.705,-52.8986 -50.705,-91.5879 0,-37.4005 18.8993,-70.2805 47.6914,-89.6406 l -11.0996,-16.8457 z"
       id="path4190"
       inkscape:connector-curvature="0" />
    <path
       style="color:#000000;font-style:normal;font-variant:normal;font-weight:normal;font-stretch:normal;font-size:medium;line-height:normal;font-family:sans-serif;text-indent:0;text-align:start;text-decoration:none;text-decoration-line:none;text-decoration-style:solid;text-decoration-color:#000000;letter-spacing:normal;word-spacing:normal;text-transform:none;direction:ltr;block-progression:tb;writing-mode:lr-tb;baseline-shift:baseline;text-anchor:start;white-space:normal;clip-rule:nonzero;display:inline;overflow:visible;visibility:visible;opacity:1;isolation:auto;mix-blend-mode:normal;color-interpolation:sRGB;color-interpolation-filters:linearRGB;solid-color:#000000;solid-opacity:1;fill:#000000;fill-opacity:1;fill-rule:nonzero;stroke:none;stroke-width:87.9001236;stroke-linecap:round;stroke-linejoin:round;stroke-miterlimit:4;stroke-dasharray:none;stroke-dashoffset:0;stroke-opacity:1;color-rendering:auto;image-rendering:auto;shape-rendering:auto;text-rendering:auto;enable-background:accumulate"
       d="m 178.51392,-2064.8816 8.50282,87.4819 c 30.8356,-2.8513 62.09768,-2.6581 93.34839,0.7202 123.3544,13.3351 236.31609,75.1025 314.11154,171.7566 77.79547,96.6539 113.99517,220.2062 100.66017,343.5606 -3.50831,32.4535 -10.37514,64.1863 -20.34166,94.7501 l 83.6437,27.0021 c 11.79955,-36.2347 19.93081,-73.8468 24.08828,-112.3049 15.83689,-146.4984 -27.18373,-293.3343 -119.57534,-408.1227 -92.39148,-114.7882 -226.64246,-188.1967 -373.1408,-204.0337 -37.25523,-4.0274 -74.53076,-4.2398 -111.2971,-0.8102 z m 17.11322,176.063 5.76966,59.3471 c 102.55726,-9.2388 207.56651,31.4001 277.15244,117.8545 70.39192,87.4557 87.2361,200.3031 54.80563,299.343 l 56.75122,18.3203 c 38.26165,-117.6965 18.3466,-251.8619 -64.86503,-355.245 -82.40983,-102.3869 -207.58107,-150.5754 -329.61392,-139.6199 z m 14.01413,144.1686 3.56093,36.6423 c 63.07302,-5.4091 127.54559,19.711 170.33202,72.8694 43.59188,54.1591 53.93598,124.0861 33.68742,185.3726 l 35.03869,11.3113 c 23.84862,-72.8089 11.61986,-155.8991 -39.88908,-219.8943 -50.70732,-62.9994 -127.62797,-92.7712 -202.72998,-86.3013 z m 10.23054,105.2438 1.95176,20.0836 c 34.24828,-2.6227 69.13221,11.1502 92.35639,40.0042 24.03047,29.8557 29.62564,68.4551 18.26138,102.1821 l 19.20495,6.2017 c 13.33521,-40.0414 6.70426,-85.8578 -21.66402,-121.1029 -27.56588,-34.2482 -69.26855,-50.5735 -110.11046,-47.3687 z"
       id="path4188"
       inkscape:connector-curvature="0" />
    <path
       inkscape:connector-curvature="0"
       d="m 274.93731,-1513.4581 c -0.3727,14.6913 -8.8421,26.9002 -21.907,33.0414 -2.1449,0.9077 20.657,459.3746 21.5242,474.0557 -34.3625,0.1268 -35.184,0.051 -71.2124,0.2028 0.6111,-14.6811 23.9244,-473.3457 21.7796,-474.2585 -13.4121,-6.0956 -21.3206,-18.6012 -21.9063,-33.049 0,-19.7954 16.0655,-35.861 35.8609,-35.861 19.7947,10e-4 35.861,16.0656 35.861,35.861 z"
       style="fill:#000000"
       sodipodi:nodetypes="ccccccsc"
       id="path2385" />
    <text
       xml:space="preserve"
       style="font-style:normal;font-weight:normal;font-size:917.12512207px;line-height:125%;font-family:Sans;letter-spacing:0px;word-spacing:0px;fill:#000000;fill-opacity:1;stroke:none;stroke-width:1px;stroke-linecap:butt;stroke-linejoin:miter;stroke-opacity:1"
       x="-1719.1344"
       y="-981.58868"
       id="text4143"
       sodipodi:linespacing="125%"><tspan
         sodipodi:role="line"
         id="tspan4145"
         x="-1719.1344"
         y="-981.58868">R2B</tspan></text>
  </g>
  <metadata
     id="metadata13">
    <rdf:RDF>
      <cc:Work>
        <dc:format>image/svg+xml</dc:format>
        <dc:type
           rdf:resource="http://purl.org/dc/dcmitype/StillImage" />
        <cc:license
           rdf:resource="http://creativecommons.org/publicdomain/zero/1.0/" />
        <dc:publisher>
          <cc:Agent
             rdf:about="http://openclipart.org/">
            <dc:title>Openclipart</dc:title>
          </cc:Agent>
        </dc:publisher>
        <dc:title>Antenna and radio waves</dc:title>
        <dc:date>2008-07-17T16:18:55</dc:date>
        <dc:description>A basic radio broadcast symbol</dc:description>
        <dc:source>https://openclipart.org/detail/17890/antenna-and-radio-waves-by-johnpwarren</dc:source>
        <dc:creator>
          <cc:Agent>
            <dc:title>johnpwarren</dc:title>
          </cc:Agent>
        </dc:creator>
        <dc:subject>
          <rdf:Bag>
            <rdf:li>communication</rdf:li>
            <rdf:li>electronics</rdf:li>
            <rdf:li>how i did it</rdf:li>
            <rdf:li>radio</rdf:li>
            <rdf:li>silhouette</rdf:li>
            <rdf:li>tool</rdf:li>
          </rdf:Bag>
        </dc:subject>
      </cc:Work>
      <cc:License
         rdf:about="http://creativecommons.org/publicdomain/zero/1.0/">
        <cc:permits
           rdf:resource="http://creativecommons.org/ns#Reproduction" />
        <cc:permits
           rdf:resource="http://creativecommons.org/ns#Distribution" />
        <cc:permits
           rdf:resource="http://creativecommons.org/ns#DerivativeWorks" />
      </cc:License>
    </rdf:RDF>
  </metadata>
</svg>
